<?xml version="1.0" encoding="utf-8"?>
<!-- Generator: Adobe Illustrator 25.0.0, SVG Export Plug-In . SVG Version: 6.00 Build 0)  -->
<svg version="1.1" id="Layer_1" xmlns="http://www.w3.org/2000/svg" xmlns:xlink="http://www.w3.org/1999/xlink" x="0px" y="0px"
	 viewBox="0 0 1079.7 355.9" style="enable-background:new 0 0 1079.7 355.9;" xml:space="preserve">
<path d="M635.6,80.2c-30.9,0-60,14.9-78,40.1c-30.9-43.1-90.9-53-134-22.1c-23,16.5-37.6,42.3-39.8,70.5
	c-4.1-52.9-50.2-92.4-103.1-88.4c-16.7,1.3-32.8,6.9-46.6,16.4V0.5h-42v142.4l-16-19.7C146.7,79,87,67,42.8,96.4
	c-5.3,3.5-10.2,7.5-14.6,12c-37.5,37.5-37.4,98.3,0.1,135.8c32.6,32.5,83.7,37.3,121.8,11.5v99.8h42V209.6l16,19.7
	c3.5,5.3,7.6,10.3,12.1,14.8c37.5,37.5,98.3,37.5,135.8,0c16.2-16.2,26.1-37.6,27.8-60.5c4.1,52.9,50.3,92.4,103.2,88.2
	c28.2-2.2,54-16.8,70.6-39.8c30.9,43.1,90.8,53,133.9,22.1s53-90.8,22.1-133.9C695.6,95.1,666.5,80.2,635.6,80.2L635.6,80.2z
	 M134.3,214.4c-21.1,21.1-55.3,21.1-76.4,0s-21.1-55.3,0-76.4c20.8-20.8,54.5-21.1,75.7-0.6l0,0l0.6,0.6
	C155.4,159.1,155.4,193.3,134.3,214.4C134.3,214.4,134.3,214.4,134.3,214.4L134.3,214.4z M326.3,214.4
	c-20.9,20.8-54.5,21.1-75.7,0.6l-0.6-0.6c-21.1-21.1-21.1-55.3,0-76.4s55.3-21.1,76.4,0C347.4,159.1,347.4,193.3,326.3,214.4z
	 M515.3,216.6c-22.3,19.8-56.4,17.8-76.2-4.6s-17.8-56.4,4.6-76.2c20.4-18.1,51.2-18.1,71.7,0l41.8-14.9
	c-23.5,33.2-23.5,77.5,0,110.7L515.3,216.6z M635.5,230.2c-29.8,0-54-24.2-54-54s24.2-54,54-54s54,24.2,54,54
	C689.5,206,665.4,230.2,635.5,230.2L635.5,230.2z M1079.5,176.2c0-19.9-6.2-39.3-17.8-55.6c-0.5-0.7-1-1.4-1.5-2.1
	c-0.2-0.2-0.3-0.4-0.5-0.6c-0.4-0.5-0.8-1-1.1-1.5l-0.6-0.7l-1.1-1.4l-0.6-0.7l-1.3-1.5l-0.4-0.4c-0.6-0.7-1.2-1.3-1.8-1.9l-0.4-0.4
	c-0.5-0.5-1-1-1.4-1.5l-0.6-0.6c-0.4-0.4-0.9-0.8-1.3-1.2l-0.7-0.6c-0.4-0.4-0.9-0.8-1.3-1.2l-0.6-0.5c-0.6-0.6-1.3-1.1-1.9-1.6
	l-0.1-0.1c-0.7-0.6-1.3-1.1-2-1.6l-0.6-0.4l-1.5-1.1l-0.7-0.5l-1.4-1l-0.7-0.5c-0.5-0.4-1.1-0.7-1.6-1.1l-0.6-0.4
	c-0.7-0.5-1.5-0.9-2.2-1.4l-0.4-0.2l-1.9-1.1l-0.8-0.4l-1.6-0.8l-0.8-0.4l-1.6-0.8l-0.8-0.4c-0.7-0.3-1.3-0.6-2-1l-0.4-0.2
	c-0.8-0.4-1.6-0.7-2.4-1l-0.7-0.3l-1.8-0.7c-0.3-0.1-0.6-0.2-0.9-0.3c-0.5-0.2-1.1-0.4-1.7-0.6l-0.9-0.3c-0.6-0.2-1.2-0.4-1.8-0.6
	l-0.7-0.2c-0.8-0.3-1.7-0.5-2.5-0.8l-0.3-0.1c-0.8-0.2-1.5-0.4-2.3-0.6l-0.8-0.2l-1.8-0.4l-1-0.2c-0.6-0.1-1.2-0.2-1.8-0.4l-0.9-0.2
	l-2.1-0.3l-0.6-0.1c-0.9-0.1-1.8-0.3-2.7-0.4l-0.7-0.1l-2-0.2l-1-0.1l-1.8-0.1c-0.3,0-0.7,0-1-0.1c-0.6,0-1.3-0.1-1.9-0.1h-0.9
	c-0.9,0-1.8,0-2.8,0c-30.9,0-60,14.9-78,40.1c-0.4-0.6-0.8-1.2-1.3-1.8c-0.2-0.2-0.3-0.4-0.5-0.6c-0.4-0.5-0.8-1-1.1-1.5l-0.6-0.7
	l-1.1-1.4l-0.5-0.7c-0.4-0.5-0.9-1-1.3-1.5l-0.4-0.4c-0.6-0.7-1.2-1.3-1.8-1.9l-0.4-0.4c-0.5-0.5-1-1-1.5-1.5l-0.6-0.6l-1.3-1.2
	l-0.7-0.6c-0.4-0.4-0.9-0.8-1.3-1.2l-0.6-0.5c-0.6-0.6-1.3-1.1-1.9-1.6c0,0,0-0.1-0.1-0.1c-0.7-0.6-1.3-1.1-2-1.6l-0.6-0.4l-1.5-1.1
	l-0.7-0.5l-1.4-1c-0.2-0.2-0.5-0.3-0.7-0.5c-0.5-0.4-1.1-0.7-1.6-1.1l-0.6-0.4c-0.7-0.5-1.5-0.9-2.2-1.4l-0.4-0.2l-1.9-1.1l-0.8-0.4
	l-1.5-0.9l-0.8-0.4l-1.6-0.8l-0.8-0.4c-0.7-0.3-1.3-0.6-2-1l-0.4-0.2c-0.8-0.4-1.6-0.7-2.4-1l-0.7-0.3l-1.8-0.7l-0.9-0.3l-1.7-0.6
	l-0.9-0.3c-0.6-0.2-1.2-0.4-1.8-0.6l-0.7-0.2c-0.8-0.3-1.7-0.5-2.5-0.8l-0.3-0.1c-0.8-0.2-1.5-0.4-2.3-0.6l-0.8-0.2l-1.8-0.4l-1-0.2
	c-0.6-0.1-1.2-0.2-1.8-0.4l-0.9-0.2l-2.1-0.3l-0.6-0.1c-0.9-0.1-1.8-0.3-2.7-0.4l-0.7-0.1l-2-0.2l-1-0.1l-1.8-0.1
	c-0.3,0-0.7,0-1-0.1c-0.6,0-1.3-0.1-1.9-0.1h-0.9c-0.9,0-1.8,0-2.8,0c-53,0-96,43-96,96v96h42v-96c0-29.8,24.2-54,54-54
	c0.9,0,1.8,0,2.7,0.1l0.9,0.1c0.6,0,1.2,0.1,1.7,0.1c0.4,0,0.7,0.1,1.1,0.1s1,0.1,1.5,0.2l1.2,0.2l1.3,0.2l1.3,0.3l1.2,0.3
	c0.5,0.1,0.9,0.2,1.3,0.3l1.1,0.3c0.5,0.1,0.9,0.3,1.4,0.4s0.7,0.2,1,0.3l1.5,0.5l0.8,0.3l1.5,0.6l0.7,0.3l1.7,0.8l0.4,0.2
	c4.2,2.1,8.1,4.8,11.6,7.9l41.8-14.9c-30.6,43.3-20.2,103.2,23.1,133.8c16.2,11.4,35.5,17.5,55.3,17.5c0.9,0,1.8,0,2.8,0h0.9
	l1.9-0.1l1-0.1c0.6,0,1.2-0.1,1.8-0.1l1-0.1l2-0.2l0.7-0.1c0.9-0.1,1.8-0.2,2.7-0.4l0.6-0.1c0.7-0.1,1.4-0.2,2.1-0.4l0.9-0.2
	l1.8-0.4l1-0.2l1.8-0.4c0.3-0.1,0.6-0.1,0.8-0.2c0.8-0.2,1.5-0.4,2.3-0.6l0.3-0.1c0.9-0.2,1.7-0.5,2.5-0.8l0.7-0.2l1.8-0.6l0.9-0.3
	c0.6-0.2,1.1-0.4,1.7-0.6l0.9-0.3c0.6-0.2,1.2-0.5,1.8-0.7l0.7-0.3c0.8-0.3,1.6-0.7,2.4-1l0.4-0.2l2-0.9l0.8-0.4
	c0.5-0.3,1.1-0.5,1.6-0.8l0.8-0.4l1.6-0.9l0.8-0.4c0.6-0.4,1.2-0.7,1.9-1.1l0.4-0.2c0.7-0.5,1.5-0.9,2.2-1.4l0.6-0.4l1.6-1.1
	l0.7-0.5c0.5-0.3,1-0.7,1.4-1l0.7-0.5l1.5-1.1l0.6-0.5c0.7-0.5,1.4-1.1,2-1.6l0.1-0.1c0.6-0.5,1.3-1.1,1.9-1.6l0.6-0.5
	c0.5-0.4,0.9-0.8,1.3-1.2l0.7-0.6l1.3-1.2l0.6-0.6l1.4-1.5l0.4-0.4c0.6-0.6,1.2-1.3,1.8-1.9c0.1-0.1,0.2-0.3,0.4-0.4
	c0.5-0.5,0.9-1,1.3-1.5l0.6-0.6l1.1-1.4c0.2-0.2,0.4-0.5,0.6-0.7l1.1-1.4c0.2-0.2,0.3-0.4,0.5-0.6c0.5-0.7,1-1.4,1.5-2.1l-42.5-15.2
	l0,0c-3.5,3.1-7.4,5.8-11.6,7.9l-0.4,0.2c-0.5,0.3-1.1,0.5-1.6,0.8l-0.7,0.3c-0.5,0.2-1,0.4-1.5,0.6l-0.8,0.3l-1.5,0.5l-1,0.3
	l-1.4,0.4l-1.1,0.3l-1.3,0.4l-1.2,0.3l-1.3,0.3l-1.3,0.2l-1.2,0.2l-1.5,0.2l-1.1,0.1l-1.7,0.1l-0.9,0.1c-0.9,0-1.8,0.1-2.7,0.1
	c-21.5,0-41-12.8-49.6-32.6h143.1C1078.7,190.8,1079.6,183.5,1079.5,176.2L1079.5,176.2z M933.6,155.7c8.3-20.2,28.1-33.4,49.9-33.4
	c0.9,0,1.8,0,2.7,0.1l0.9,0.1c0.6,0,1.2,0.1,1.7,0.1c0.4,0,0.7,0.1,1.1,0.1s1,0.1,1.5,0.2l1.2,0.2l1.3,0.2l1.3,0.3l1.2,0.3
	c0.5,0.1,0.9,0.2,1.3,0.3l1.1,0.3c0.5,0.1,0.9,0.3,1.4,0.4s0.7,0.2,1,0.3l1.5,0.5l0.8,0.3l1.5,0.6l0.7,0.3c0.6,0.2,1.1,0.5,1.7,0.8
	l0.4,0.2c11.6,5.9,20.7,15.7,25.7,27.7L933.6,155.7z"/>
</svg>
