<?xml version="1.0" encoding="utf-8"?>
<!-- Generator: Adobe Illustrator 25.0.0, SVG Export Plug-In . SVG Version: 6.00 Build 0)  -->
<svg version="1.1" id="Layer_1" xmlns="http://www.w3.org/2000/svg" xmlns:xlink="http://www.w3.org/1999/xlink" x="0px" y="0px"
	 viewBox="0 0 1079.7 355.9" style="enable-background:new 0 0 1079.7 355.9;" xml:space="preserve">
<g>
	<g>
		<path d="M1067.1,299.7v29.9l-21.2-29.9h-9.4v55.1h12.6v-29.9l21.2,29.9h9.4v-55.1H1067.1z M733.8,324.2l-14.9-24.5h-12.6v55.1
			h12.6v-32l14.2,23.4h1.4l14.2-23.4v32h12.6v-55.1h-12.6L733.8,324.2z M672.5,299.7h-22v55.1h22c7.6,0,14-2.6,19.1-7.9
			c5.1-5.3,7.7-11.8,7.7-19.6c0-7.8-2.6-14.4-7.7-19.6S680.1,299.7,672.5,299.7z M683.1,338.5c-2.7,2.8-6.2,4.2-10.6,4.2H663v-30.8
			h9.4c4.4,0,7.9,1.4,10.6,4.2c2.7,2.8,4.1,6.5,4.1,11.2C687.1,331.9,685.8,335.7,683.1,338.5z M598.5,327.9c1.9-2.9,2.8-6,2.8-9.3
			c0-5.2-1.8-9.7-5.5-13.4s-8.1-5.5-13.4-5.5h-22v55.1H573v-18.1h6l10.4,18.1h13.5l-11.7-20.2C594.2,333,596.7,330.8,598.5,327.9z
			 M586.9,323.7c-1.2,1.4-2.7,2-4.4,2H573v-14.2h9.4c1.7,0,3.2,0.7,4.4,2c1.2,1.4,1.8,3,1.8,5C588.7,320.6,588.1,322.3,586.9,323.7z
			 M621.4,332.9H641v-12h-19.7v-9.1H643v-12.1h-34.2v55.1h34.6v-12.1h-22V332.9z M952.5,354.8H965v-55.1h-12.6V354.8z M888,354.8
			h12.6v-55.1H888V354.8z M803,332.9h19.7v-12H803v-9.1h21.6v-12.1h-34.2v55.1H825v-12.1h-22V332.9z M1000.7,298.6
			c-8,0-14.7,2.8-20.3,8.3c-5.6,5.5-8.3,12.3-8.3,20.4c0,8.1,2.8,14.9,8.3,20.4c5.6,5.5,12.3,8.3,20.3,8.3c8,0,14.7-2.8,20.3-8.3
			c5.6-5.5,8.3-12.3,8.3-20.4c0-8.1-2.8-14.9-8.3-20.4C1015.5,301.4,1008.7,298.6,1000.7,298.6z M1012.2,339.1
			c-3.1,3-6.9,4.6-11.4,4.6s-8.4-1.5-11.4-4.6s-4.6-7-4.6-11.8c0-4.8,1.5-8.8,4.6-11.8c3.1-3,6.9-4.6,11.4-4.6s8.4,1.5,11.4,4.6
			c3.1,3,4.6,7,4.6,11.8C1016.8,332.1,1015.3,336,1012.2,339.1z M906.1,311.9h14.2v42.9h12.6v-42.9h14.2v-12.1h-40.9V311.9z
			 M1038.1,255.2c0.5-0.3,1-0.7,1.4-1l0.7-0.5l1.5-1.1l0.6-0.5c0.7-0.5,1.4-1.1,2-1.6l0.1-0.1c0.6-0.5,1.3-1.1,1.9-1.6l0.6-0.5
			c0.5-0.4,0.9-0.8,1.3-1.2l0.7-0.6l1.3-1.2l0.6-0.6l1.4-1.5l0.4-0.4c0.6-0.6,1.2-1.3,1.8-1.9c0.1-0.1,0.2-0.3,0.4-0.4
			c0.5-0.5,0.9-1,1.3-1.5l0.6-0.6l1.1-1.4c0.2-0.2,0.4-0.5,0.6-0.7l1.1-1.4c0.2-0.2,0.3-0.4,0.5-0.6l1.5-2.1L1019,217
			c-3.5,3.1-7.4,5.8-11.6,7.9l-0.4,0.2c-0.5,0.3-1.1,0.5-1.6,0.8l-0.7,0.3l-1.5,0.6l-0.8,0.3l-1.5,0.5l-1,0.3l-1.4,0.4l-1.1,0.3
			l-1.3,0.4l-1.2,0.3l-1.3,0.3l-1.3,0.2l-1.2,0.2l-1.5,0.2l-1.1,0.1l-1.7,0.1l-0.9,0.1c-0.9,0-1.8,0.1-2.7,0.1
			c-21.5,0-41-12.8-49.6-32.6h143.1c2-7.2,2.9-14.5,2.8-21.8c0-19.9-6.2-39.3-17.8-55.6l-1.5-2.1c-0.2-0.2-0.3-0.4-0.5-0.6
			c-0.4-0.5-0.8-1-1.1-1.5l-0.6-0.7l-1.1-1.4l-0.6-0.7l-1.3-1.5l-0.4-0.4c-0.6-0.7-1.2-1.3-1.8-1.9l-0.4-0.4c-0.5-0.5-1-1-1.4-1.5
			l-0.6-0.6c-0.4-0.4-0.9-0.8-1.3-1.2l-0.7-0.6c-0.4-0.4-0.9-0.8-1.3-1.2l-0.6-0.5c-0.6-0.6-1.3-1.1-1.9-1.6l-0.1-0.1
			c-0.7-0.6-1.3-1.1-2-1.6l-0.6-0.4l-1.5-1.1l-0.7-0.5l-1.4-1l-0.7-0.5c-0.5-0.4-1.1-0.7-1.6-1.1l-0.6-0.4c-0.7-0.5-1.5-0.9-2.2-1.4
			l-0.4-0.2l-1.9-1.1l-4.8-2.4l-0.8-0.4c-0.7-0.3-1.3-0.6-2-1l-0.4-0.2c-0.8-0.4-1.6-0.7-2.4-1l-0.7-0.3l-1.8-0.7
			c-0.3-0.1-0.6-0.2-0.9-0.3c-0.5-0.2-1.1-0.4-1.7-0.6l-0.9-0.3c-0.6-0.2-1.2-0.4-1.8-0.6l-0.7-0.2c-0.8-0.3-1.7-0.5-2.5-0.8
			l-0.3-0.1c-0.8-0.2-1.5-0.4-2.3-0.6l-0.8-0.2l-1.8-0.4l-1-0.2c-0.6-0.1-1.2-0.2-1.8-0.4l-0.9-0.2l-2.1-0.3l-0.6-0.1
			c-0.9-0.1-1.8-0.3-2.7-0.4l-0.7-0.1l-2-0.2l-1-0.1l-1.8-0.1c-0.3,0-0.7,0-1-0.1c-0.6,0-1.3-0.1-1.9-0.1h-3.7
			c-30.9,0-60,14.9-78,40.1c-0.4-0.6-0.8-1.2-1.3-1.8c-0.2-0.2-0.3-0.4-0.5-0.6c-0.4-0.5-0.8-1-1.1-1.5l-0.6-0.7l-1.1-1.4l-0.5-0.7
			c-0.4-0.5-0.9-1-1.3-1.5l-0.4-0.4c-0.6-0.7-1.2-1.3-1.8-1.9l-2.5-2.5l-1.3-1.2l-0.7-0.6c-0.4-0.4-0.9-0.8-1.3-1.2l-0.6-0.5
			c-0.6-0.6-1.3-1.1-1.9-1.6c0,0,0-0.1-0.1-0.1c-0.7-0.6-1.3-1.1-2-1.6l-0.6-0.4l-1.5-1.1l-2.1-1.5c-0.2-0.2-0.5-0.3-0.7-0.5
			c-0.5-0.4-1.1-0.7-1.6-1.1l-0.6-0.4c-0.7-0.5-1.5-0.9-2.2-1.4l-0.4-0.2l-1.9-1.1l-0.8-0.4l-1.5-0.9l-0.8-0.4l-1.6-0.8l-0.8-0.4
			c-0.7-0.3-1.3-0.6-2-1l-0.4-0.2c-0.8-0.4-1.6-0.7-2.4-1l-0.7-0.3l-1.8-0.7l-0.9-0.3l-1.7-0.6l-0.9-0.3c-0.6-0.2-1.2-0.4-1.8-0.6
			l-0.7-0.2c-0.8-0.3-1.7-0.5-2.5-0.8l-0.3-0.1c-0.8-0.2-1.5-0.4-2.3-0.6l-0.8-0.2l-1.8-0.4l-1-0.2c-0.6-0.1-1.2-0.2-1.8-0.4
			l-0.9-0.2l-2.1-0.3l-0.6-0.1c-0.9-0.1-1.8-0.3-2.7-0.4l-0.7-0.1l-2-0.2l-1-0.1l-1.8-0.1c-0.3,0-0.7,0-1-0.1
			c-0.6,0-1.3-0.1-1.9-0.1h-3.7c-50,0-91.1,38.3-95.6,87.1c-1.5-16.5-7.2-32.9-17.6-47.4c-18-25.1-47.1-40-78-40s-60,14.9-78,40.1
			c-30.9-43.1-90.9-53-134-22.1c-23,16.5-37.6,42.3-39.8,70.5c-4.1-52.9-50.2-92.4-103.1-88.4c-16.7,1.3-32.8,6.9-46.6,16.4V0.5h-42
			v142.4l-16-19.7C146.7,79,87,67,42.8,96.4c-5.3,3.5-10.2,7.5-14.6,12c-37.5,37.5-37.4,98.3,0.1,135.8
			c32.6,32.5,83.7,37.3,121.8,11.5v99.8h42V209.6l16,19.7c3.5,5.3,7.6,10.3,12.1,14.8c37.5,37.5,98.3,37.5,135.8,0
			c16.2-16.2,26.1-37.6,27.8-60.5c4.1,52.9,50.3,92.4,103.2,88.2c28.2-2.2,54-16.8,70.6-39.8c30.9,43.1,90.8,53,133.9,22.1
			c22.6-16.2,36-40.3,39.3-65.8v84.2h42v-96c0-29.8,24.2-54,54-54c0.9,0,1.8,0,2.7,0.1l0.9,0.1c0.6,0,1.2,0.1,1.7,0.1
			c0.4,0,0.7,0.1,1.1,0.1s1,0.1,1.5,0.2l1.2,0.2l1.3,0.2l1.3,0.3l1.2,0.3c0.5,0.1,0.9,0.2,1.3,0.3l1.1,0.3c0.5,0.1,0.9,0.3,1.4,0.4
			c0.5,0.1,0.7,0.2,1,0.3l1.5,0.5l0.8,0.3l1.5,0.6l0.7,0.3l1.7,0.8l0.4,0.2c4.2,2.1,8.1,4.8,11.6,7.9l41.8-14.9
			c-30.6,43.3-20.2,103.2,23.1,133.8c16.2,11.4,35.5,17.5,55.3,17.5h3.7l1.9-0.1l1-0.1c0.6,0,1.2-0.1,1.8-0.1l1-0.1l2-0.2l0.7-0.1
			c0.9-0.1,1.8-0.2,2.7-0.4l0.6-0.1c0.7-0.1,1.4-0.2,2.1-0.4l0.9-0.2l1.8-0.4l1-0.2l1.8-0.4c0.3-0.1,0.6-0.1,0.8-0.2
			c0.8-0.2,1.5-0.4,2.3-0.6l0.3-0.1c0.9-0.2,1.7-0.5,2.5-0.8l0.7-0.2l1.8-0.6l0.9-0.3c0.6-0.2,1.1-0.4,1.7-0.6l0.9-0.3
			c0.6-0.2,1.2-0.5,1.8-0.7l0.7-0.3c0.8-0.3,1.6-0.7,2.4-1l0.4-0.2l2-0.9l0.8-0.4c0.5-0.3,1.1-0.5,1.6-0.8l0.8-0.4l1.6-0.9l0.8-0.4
			c0.6-0.4,1.2-0.7,1.9-1.1l0.4-0.2c0.7-0.5,1.5-0.9,2.2-1.4l0.6-0.4l1.6-1.1L1038.1,255.2z M134.3,214.4
			c-21.1,21.1-55.3,21.1-76.4,0c-21.1-21.1-21.1-55.3,0-76.4c20.8-20.8,54.5-21.1,75.7-0.6l0.6,0.6
			C155.4,159.1,155.4,193.3,134.3,214.4z M326.3,214.4c-20.9,20.8-54.5,21.1-75.7,0.6l-0.6-0.6c-21.1-21.1-21.1-55.3,0-76.4
			c21.1-21.1,55.3-21.1,76.4,0C347.4,159.1,347.4,193.3,326.3,214.4z M557.2,231.6l-41.9-15c-22.3,19.8-56.4,17.8-76.2-4.6
			c-19.8-22.4-17.8-56.4,4.6-76.2c20.4-18.1,51.2-18.1,71.7,0l41.8-14.9C533.7,154.1,533.7,198.4,557.2,231.6z M635.5,230.2
			c-29.8,0-54-24.2-54-54s24.2-54,54-54s54,24.2,54,54S665.4,230.2,635.5,230.2z M983.5,122.3c0.9,0,1.8,0,2.7,0.1l0.9,0.1
			c0.6,0,1.2,0.1,1.7,0.1c0.4,0,0.7,0.1,1.1,0.1s1,0.1,1.5,0.2l1.2,0.2l1.3,0.2l1.3,0.3l1.2,0.3c0.5,0.1,0.9,0.2,1.3,0.3l1.1,0.3
			c0.5,0.1,0.9,0.3,1.4,0.4s0.7,0.2,1,0.3l1.5,0.5l0.8,0.3l1.5,0.6l0.7,0.3c0.6,0.2,1.1,0.5,1.7,0.8l0.4,0.2
			c11.6,5.9,20.7,15.7,25.7,27.7l-99.9,0.1C941.9,135.5,961.7,122.3,983.5,122.3z M854.1,299.7h-22v55.1h22c7.6,0,14-2.6,19.1-7.9
			c5.1-5.3,7.7-11.8,7.7-19.6c0-7.8-2.6-14.4-7.7-19.6S861.7,299.7,854.1,299.7z M864.7,338.5c-2.7,2.8-6.2,4.2-10.6,4.2h-9.4v-30.8
			h9.4c4.4,0,7.9,1.4,10.6,4.2c2.7,2.8,4.1,6.5,4.1,11.2C868.8,331.9,867.4,335.7,864.7,338.5z"/>
	</g>
</g>
</svg>
